<?xml version="1.0" encoding="UTF-8"?>
<svg width="38px" height="17px" viewBox="0 0 38 17" version="1.1" xmlns="http://www.w3.org/2000/svg" xmlns:xlink="http://www.w3.org/1999/xlink">
    <!-- Generator: Sketch 46.1 (44463) - http://www.bohemiancoding.com/sketch -->
    <title>Sprite-Favorite</title>
    <desc>Created with Sketch.</desc>
    <defs></defs>
    <g id="Page-1" stroke="none" stroke-width="1" fill="none" fill-rule="evenodd">
        <g id="Sprite-Favorite" fill="#FFFFFF">
            <g id="Group">
                <path d="M13.3571429,0 C14.9642938,0 16.2351144,0.467257232 17.1696429,1.40178571 C18.1041713,2.3363142 18.5714286,3.6011825 18.5714286,5.19642857 C18.5714286,5.56547804 18.5267862,5.94047429 18.4375,6.32142857 C18.3482138,6.70238286 18.2261913,7.05356982 18.0714286,7.375 C17.9166659,7.69643018 17.7559532,7.99702241 17.5892857,8.27678571 C17.4226182,8.55654902 17.2410724,8.81845116 17.0446429,9.0625 C16.8482133,9.30654884 16.6875006,9.49999929 16.5625,9.64285714 C16.4374994,9.785715 16.3095245,9.91666607 16.1785714,10.0357143 L16.1607143,10.0535714 L10.1785714,15.9464286 C9.940475,16.1964298 9.64285893,16.3214286 9.28571429,16.3214286 C8.92856964,16.3214286 8.63095357,16.1964298 8.39285714,15.9464286 L2.39285714,10.0357143 L2.0625,9.70535714 C1.93749938,9.58035652 1.74107277,9.34523982 1.47321429,9 C1.2053558,8.65476018 0.973215268,8.30654938 0.776785714,7.95535714 C0.580356161,7.60416491 0.401786518,7.17857393 0.241071429,6.67857143 C0.0803563393,6.17856893 0,5.68452625 0,5.19642857 C0,3.6011825 0.467257232,2.3363142 1.40178571,1.40178571 C2.3363142,0.467257232 3.60713482,0 5.21428571,0 C6.52381607,0 7.88094536,0.642850714 9.28571429,1.92857143 C10.6904832,0.642850714 12.0476125,0 13.3571429,0 Z M15.375,9.25 C15.9702411,8.66666375 16.4642838,8.01786071 16.8571429,7.30357143 C17.250002,6.58928214 17.4464286,5.88690821 17.4464286,5.19642857 C17.4464286,3.91070786 17.0892893,2.91071786 16.375,2.19642857 C15.6607107,1.48213929 14.6547684,1.125 13.3571429,1.125 C12.2023752,1.125 10.8809598,1.88094482 9.39285714,3.39285714 L9.28571429,3.5 C8.96428411,3.166665 8.67262036,2.88690589 8.41071429,2.66071429 C8.14880821,2.43452268 7.83631134,2.1904775 7.47321429,1.92857143 C7.11011723,1.66666536 6.73809714,1.46726259 6.35714286,1.33035714 C5.97618857,1.1934517 5.59524,1.125 5.21428571,1.125 C3.91666018,1.125 2.91071786,1.48213929 2.19642857,2.19642857 C1.48213929,2.91071786 1.125,3.91070786 1.125,5.19642857 C1.125,5.67262143 1.22916563,6.16964027 1.4375,6.6875 C1.64583438,7.20535973 1.89880804,7.67559313 2.19642857,8.09821429 C2.49404911,8.52083545 2.82142679,8.89880786 3.17857143,9.23214286 L9.17857143,15.1428571 C9.25000036,15.2142861 9.32142821,15.2142861 9.39285714,15.1428571 L15.375,9.25 Z" id=""></path>
                <path d="M32.3571429,0 C33.9642938,0 35.2351144,0.467257232 36.1696429,1.40178571 C37.1041713,2.3363142 37.5714286,3.6011825 37.5714286,5.19642857 C37.5714286,5.56547804 37.5267862,5.94047429 37.4375,6.32142857 C37.3482138,6.70238286 37.2261913,7.05356982 37.0714286,7.375 C36.9166659,7.69643018 36.7559532,7.99702241 36.5892857,8.27678571 C36.4226182,8.55654902 36.2410724,8.81845116 36.0446429,9.0625 C35.8482133,9.30654884 35.6875006,9.49999929 35.5625,9.64285714 C35.4374994,9.785715 35.3095245,9.91666607 35.1785714,10.0357143 L35.1607143,10.0535714 L29.1785714,15.9464286 C28.940475,16.1964298 28.6428589,16.3214286 28.2857143,16.3214286 C27.9285696,16.3214286 27.6309536,16.1964298 27.3928571,15.9464286 L21.3928571,10.0357143 L21.0625,9.70535714 C20.9374994,9.58035652 20.7410728,9.34523982 20.4732143,9 C20.2053558,8.65476018 19.9732153,8.30654938 19.7767857,7.95535714 C19.5803562,7.60416491 19.4017865,7.17857393 19.2410714,6.67857143 C19.0803563,6.17856893 19,5.68452625 19,5.19642857 C19,3.6011825 19.4672572,2.3363142 20.4017857,1.40178571 C21.3363142,0.467257232 22.6071348,0 24.2142857,0 C25.5238161,0 26.8809454,0.642850714 28.2857143,1.92857143 C29.6904832,0.642850714 31.0476125,0 32.3571429,0 Z" id=""></path>
            </g>
        </g>
    </g>
</svg>